<svg width="104" height="104" viewBox="0 0 104 104" fill="none" xmlns="http://www.w3.org/2000/svg">
<path d="M84.9485 55.0626C85.1459 53.2412 86.2069 52.3986 88.1314 52.5347L88.1914 53.6517C87.4236 53.6087 86.85 53.7035 86.4708 53.936C86.0986 54.1773 85.8806 54.5922 85.8169 55.1808C85.7738 55.5785 85.867 55.9064 86.0965 56.1647C86.3331 56.4317 86.6781 56.5898 87.1314 56.6389C87.5768 56.6872 87.9287 56.6328 88.1872 56.4757C88.4456 56.3186 88.6648 56.0406 88.8448 55.6417L89.2914 54.64C89.5258 54.1101 89.8662 53.7165 90.3125 53.4591C90.7668 53.2025 91.2803 53.1053 91.8529 53.1673C92.5528 53.2432 93.0779 53.5214 93.4282 54.0019C93.7855 54.4913 93.9241 55.1058 93.844 55.8454C93.7587 56.6328 93.482 57.2184 93.0139 57.6022C92.5529 57.9949 91.859 58.1611 90.9321 58.1009L90.8456 57.0052C91.5339 57.0395 92.05 56.9546 92.394 56.7505C92.7451 56.5552 92.9465 56.2189 92.9982 55.7417C93.043 55.3281 92.9551 54.9887 92.7344 54.7234C92.5208 54.4669 92.2112 54.3166 91.8056 54.2727C91.0659 54.1925 90.5331 54.505 90.2073 55.21L89.7356 56.221C89.2078 57.3789 88.3116 57.8893 87.047 57.7523C86.3232 57.6739 85.7699 57.3966 85.3869 56.9206C85.0119 56.4454 84.8658 55.8261 84.9485 55.0626Z" fill="#121619"/>
<path d="M84.8785 61.3663L83.8129 64.5275L82.9601 64.24L84.3592 60.0895L92.4328 62.811L91.0605 66.8819L90.2077 66.5945L91.2465 63.5128L88.597 62.6197L87.6233 65.508L86.7819 65.2244L87.7555 62.3361L84.8785 61.3663Z" fill="#121619"/>
<path d="M81.7647 67.0611L88.9697 71.6084L88.31 72.6536L81.7022 72.0166C81.3818 71.9847 80.9553 71.881 80.4227 71.7057L80.4098 71.726C80.783 71.9142 81.2469 72.1834 81.8017 72.5335L86.5103 75.5052L85.9852 76.3374L78.7801 71.7901L79.395 70.8159L86.1502 71.4892C86.4282 71.5133 86.859 71.6102 87.4426 71.7798L87.4554 71.7595C87.0078 71.5243 86.5946 71.2872 86.2157 71.0481L81.2331 67.9034L81.7647 67.0611Z" fill="#121619"/>
<path d="M77.0325 74.0024L82.9019 80.1782L81.3101 81.691C80.5157 82.446 79.6673 82.7611 78.7651 82.6363C77.8684 82.5173 76.9406 81.9533 75.9817 80.9443C75.0062 79.9179 74.4793 78.9397 74.4011 78.0097C74.3229 77.0797 74.6782 76.2399 75.4668 75.4904L77.0325 74.0024ZM76.8544 75.3305L76.0629 76.0827C75.5178 76.6008 75.3072 77.2037 75.4312 77.8916C75.5494 78.585 76.0025 79.3463 76.7906 80.1755C78.3392 81.805 79.6645 82.0962 80.7662 81.049L81.5665 80.2885L76.8544 75.3305Z" fill="#121619"/>
<path d="M67.0872 81.8523L70.0504 89.8404L68.599 90.3788L64.7965 84.993C64.5599 84.6542 64.3779 84.359 64.2505 84.1076L64.2168 84.1202C64.2964 84.3808 64.3546 84.7218 64.3915 85.1433L65.0213 91.7059L63.5586 92.2485L60.5955 84.2604L61.4955 83.9265L63.5739 89.5294C63.8522 90.2795 64.0273 90.7862 64.0994 91.0496L64.1557 91.0287C64.0892 90.7803 64.0143 90.3601 63.9312 89.7681L63.3407 83.242L64.3533 82.8664L68.1616 88.1988C68.2472 88.3377 68.3422 88.4902 68.4465 88.6563C68.546 88.8327 68.6293 88.9767 68.6963 89.0884C68.7558 89.2028 68.7949 89.2737 68.8135 89.3009L68.8585 89.2842C68.6941 88.91 68.4965 88.4116 68.2656 87.7891L66.1872 82.1862L67.0872 81.8523Z" fill="#121619"/>
<path d="M56.1752 85.9486L52.8523 86.2441L52.7725 85.3477L57.1353 84.9597L57.8901 93.4462L53.6109 93.8267L53.5312 92.9303L56.7704 92.6422L56.5228 89.8572L53.4867 90.1272L53.4081 89.2427L56.4441 88.9727L56.1752 85.9486Z" fill="#121619"/>
<path d="M47.4775 84.8365C49.2938 85.0758 50.1118 86.1558 49.9313 88.0767L48.8132 88.111C48.8739 87.3443 48.7924 86.7688 48.5687 86.3842C48.336 86.0066 47.9262 85.7791 47.3393 85.7018C46.9427 85.6496 46.6127 85.7352 46.3493 85.9587C46.0768 86.1891 45.9108 86.5303 45.8513 86.9824C45.7928 87.4266 45.839 87.7796 45.9901 88.0416C46.1412 88.3036 46.4141 88.5292 46.8087 88.7183L47.7999 89.1878C48.3242 89.4344 48.7098 89.7838 48.9569 90.236C49.2029 90.696 49.2883 91.2116 49.2131 91.7827C49.1211 92.4806 48.8309 92.9992 48.3424 93.3383C47.8449 93.6843 47.2274 93.8087 46.4898 93.7115C45.7046 93.608 45.1255 93.3179 44.7526 92.8411C44.3707 92.3712 44.2205 91.6736 44.3021 90.7483L45.3995 90.6871C45.3493 91.3745 45.4222 91.8924 45.6184 92.241C45.8055 92.5965 46.1371 92.8056 46.613 92.8683C47.0254 92.9227 47.3668 92.8426 47.6371 92.6281C47.8985 92.4204 48.0558 92.1143 48.1091 91.7098C48.2063 90.9722 47.9062 90.4324 47.2089 90.0904L46.209 89.5955C45.0636 89.0412 44.574 88.1334 44.7401 86.8723C44.8352 86.1506 45.1251 85.6037 45.6099 85.2319C46.0936 84.8679 46.7161 84.7361 47.4775 84.8365Z" fill="#121619"/>
<path d="M40.3917 83.1335C42.1117 83.7642 42.6736 84.997 42.0775 86.832L40.979 86.6209C41.2058 85.8861 41.2522 85.3066 41.118 84.8825C40.9735 84.4631 40.6234 84.1515 40.0676 83.9477C39.692 83.81 39.3513 83.8214 39.0453 83.9819C38.7291 84.1471 38.4925 84.4438 38.3355 84.8719C38.1813 85.2925 38.1492 85.6472 38.2394 85.9359C38.3295 86.2245 38.5464 86.5043 38.8902 86.7752L39.7547 87.4501C40.2123 87.8054 40.5123 88.2306 40.6545 88.7259C40.7939 89.2286 40.7645 89.7504 40.5662 90.2911C40.3238 90.9521 39.9273 91.3946 39.3764 91.6187C38.8154 91.8475 38.1856 91.8339 37.487 91.5777C36.7435 91.3051 36.2419 90.8953 35.9822 90.3485C35.7123 89.8065 35.7184 89.0929 36.0003 88.2079L37.0845 88.3882C36.8852 89.0479 36.8431 89.5693 36.9583 89.9524C37.0632 90.3402 37.341 90.6167 37.7916 90.782C38.1822 90.9252 38.5328 90.9217 38.8435 90.7715C39.144 90.626 39.3644 90.3617 39.5049 89.9787C39.761 89.2802 39.5863 88.6878 38.9807 88.2016L38.1131 87.5C37.1167 86.7086 36.8374 85.7158 37.2753 84.5215C37.526 83.838 37.9284 83.3678 38.4827 83.111C39.0343 82.8616 39.6706 82.8691 40.3917 83.1335Z" fill="#121619"/>
<path d="M31.9728 78.9565L31.2049 81.4037L33.4419 82.8503L35.3586 81.1458L36.2554 81.7257L29.5331 87.525L28.5557 86.8929L31.0759 78.3766L31.9728 78.9565ZM32.7712 83.4455L30.9372 82.2596L29.9627 85.402C29.8644 85.6719 29.7422 85.9787 29.5962 86.3225L29.6163 86.3355C29.8699 86.0613 30.0996 85.824 30.3053 85.6236L32.7712 83.4455Z" fill="#121619"/>
<path d="M28.1011 75.3307C28.7207 75.9779 28.9164 76.7319 28.6883 77.5926C28.4602 78.4534 27.8202 79.3872 26.7685 80.394C24.6188 82.452 22.8413 82.7471 21.4361 81.2793C20.8165 80.632 20.5422 79.981 20.613 79.3262C20.6783 78.6656 20.9835 78.0357 21.5284 77.4365L22.4132 78.1178C21.9896 78.6009 21.7337 79.0508 21.6454 79.4675C21.5513 79.8899 21.6979 80.3033 22.0851 80.7078C22.5333 81.1759 23.0732 81.3234 23.7051 81.1505C24.3311 80.9831 25.0978 80.4651 26.005 79.5965C27.7271 77.9479 28.1428 76.6585 27.2522 75.7281C26.4279 74.867 25.4118 75.0146 24.204 76.1708L23.9007 76.4613L25.2035 77.8222L24.5707 78.428L22.5625 76.3303L25.8044 73.2267L26.3521 73.7988L25.3527 74.8719C25.8334 74.6221 26.3135 74.5335 26.7928 74.6062C27.2667 74.6731 27.7027 74.9146 28.1011 75.3307Z" fill="#121619"/>
<path d="M22.6707 70.3871L20.9845 67.5086L21.7611 67.0537L23.975 70.833L16.6234 75.1394L14.452 71.4326L15.2286 70.9777L16.8723 73.7837L19.2849 72.3705L17.7442 69.7405L18.5105 69.2917L20.0511 71.9216L22.6707 70.3871Z" fill="#121619"/>
<path d="M16.0785 60.432C16.1509 60.7355 16.1179 61.0107 15.9794 61.2576C15.8313 61.4985 15.6055 61.6552 15.302 61.7276C14.983 61.8038 14.703 61.7678 14.462 61.6197C14.2192 61.4638 14.0616 61.2341 13.9892 60.9306C13.9149 60.6193 13.9518 60.3432 14.0999 60.1023C14.2462 59.8535 14.4788 59.6911 14.7979 59.615C15.1014 59.5425 15.3745 59.5843 15.6173 59.7402C15.8505 59.8902 16.0042 60.1208 16.0785 60.432Z" fill="#121619"/>
<path d="M18.3756 49.7753C18.2556 51.6033 17.2312 52.4901 15.3027 52.4356L15.1954 51.3221C15.9644 51.3326 16.5334 51.2136 16.9025 50.9653C17.2641 50.7084 17.4643 50.2846 17.5031 49.6939C17.5293 49.2948 17.4223 48.971 17.182 48.7228C16.9343 48.466 16.583 48.3226 16.128 48.2928C15.6809 48.2634 15.3316 48.3326 15.0801 48.5005C14.8286 48.6684 14.6213 48.9554 14.4583 49.3616L14.0546 50.3814C13.8428 50.9206 13.5194 51.3283 13.0844 51.6044C12.6414 51.88 12.1325 51.9989 11.5577 51.9611C10.8552 51.915 10.3188 51.6593 9.94853 51.194C9.57077 50.7202 9.40627 50.1121 9.45503 49.3697C9.50694 48.5794 9.75859 47.9826 10.21 47.5794C10.6539 47.1676 11.3402 46.9721 12.2689 46.993L12.4016 48.0841C11.7125 48.0789 11.2004 48.1856 10.8654 48.4041C10.5229 48.6141 10.3359 48.9586 10.3044 49.4375C10.2772 49.8526 10.3794 50.1881 10.6111 50.4438C10.8354 50.691 11.1511 50.828 11.5582 50.8548C12.3006 50.9035 12.8197 50.5688 13.1154 49.8507L13.5438 48.8205C14.0221 47.6413 14.8959 47.0934 16.1652 47.1768C16.8916 47.2245 17.4562 47.4781 17.859 47.9374C18.2537 48.3963 18.426 49.0089 18.3756 49.7753Z" fill="#121619"/>
<path d="M18.1705 43.4825L19.1039 40.2797L19.9679 40.5315L18.7424 44.7366L10.5627 42.3527L11.7647 38.2283L12.6288 38.4801L11.7189 41.6022L14.4032 42.3845L15.256 39.4583L16.1086 39.7067L15.2557 42.633L18.1705 43.4825Z" fill="#121619"/>
<path d="M21.0675 37.5908L13.6844 33.3387L14.3013 32.2676L20.9295 32.6369C21.2509 32.6558 21.6813 32.7421 22.2206 32.8958L22.2325 32.875C21.8521 32.702 21.3776 32.4519 20.8092 32.1245L15.9842 29.3456L16.4753 28.4929L23.8583 32.7451L23.2834 33.7433L16.5065 33.3438C16.2277 33.3309 15.7933 33.2516 15.2034 33.1057L15.1914 33.1265C15.6481 33.3434 16.0706 33.5636 16.4588 33.7872L21.5646 36.7278L21.0675 37.5908Z" fill="#121619"/>
<path d="M25.4853 30.4896L19.3738 24.5533L20.9039 22.9781C21.6675 22.1919 22.5026 21.8432 23.4091 21.9318C24.3098 22.0149 25.2594 22.5414 26.2579 23.5113C27.2736 24.4979 27.8391 25.4543 27.9544 26.3804C28.0697 27.3065 27.7483 28.1598 26.9903 28.9403L25.4853 30.4896ZM25.6102 29.1555L26.371 28.3722C26.895 27.8328 27.0813 27.2219 26.9299 26.5396C26.7841 25.8515 26.301 25.1089 25.4804 24.3118C23.8678 22.7455 22.5321 22.5075 21.473 23.5978L20.7038 24.3897L25.6102 29.1555Z" fill="#121619"/>
<path d="M34.9563 22.289L31.6666 14.4297L33.0946 13.832L37.1157 19.0566C37.3661 19.3854 37.5601 19.6728 37.6977 19.9188L37.7309 19.9049C37.6406 19.6478 37.5684 19.3094 37.5142 18.8898L36.6147 12.3587L38.0537 11.7563L41.3434 19.6156L40.4578 19.9863L38.1504 14.4737C37.8415 13.7357 37.6456 13.2367 37.5628 12.9765L37.5074 12.9997C37.5841 13.2451 37.6762 13.6619 37.7836 14.25L38.6424 20.7462L37.6462 21.1632L33.6215 15.9921C33.5302 15.8569 33.429 15.7084 33.318 15.5468C33.2112 15.3746 33.1221 15.2342 33.0505 15.1254C32.9864 15.0135 32.9444 14.9443 32.9247 14.9179L32.8804 14.9364C33.0601 15.3035 33.2781 15.7933 33.5345 16.4058L35.8418 21.9184L34.9563 22.289Z" fill="#121619"/>
<path d="M45.7983 17.6795L49.1074 17.2564L49.2215 18.1492L44.8769 18.7046L43.7964 10.2534L48.0577 9.7086L48.1719 10.6013L44.9461 11.0137L45.3007 13.7872L48.3241 13.4006L48.4367 14.2815L45.4133 14.668L45.7983 17.6795Z" fill="#121619"/>
<path d="M54.4974 18.4233C52.6732 18.254 51.8144 17.2061 51.9209 15.2797L53.0368 15.2025C53.0057 15.971 53.1092 16.543 53.3475 16.9186C53.5946 17.287 54.0128 17.4986 54.6023 17.5533C55.0005 17.5902 55.327 17.492 55.5817 17.2585C55.8451 17.0178 55.9978 16.6705 56.04 16.2164C56.0814 15.7703 56.0216 15.4193 55.8605 15.1633C55.6995 14.9074 55.4181 14.6924 55.0165 14.5186L54.008 14.0875C53.4746 13.8613 53.0758 13.527 52.8116 13.0847C52.5481 12.6344 52.4429 12.1225 52.4962 11.5489C52.5612 10.8479 52.8313 10.3186 53.3064 9.96102C53.7902 9.59617 54.4025 9.44812 55.1433 9.51688C55.9319 9.59008 56.5217 9.85773 56.9126 10.3198C57.3123 10.7747 57.4892 11.466 57.4433 12.3938L56.349 12.4971C56.3728 11.8083 56.28 11.2935 56.0706 10.9527C55.8699 10.6047 55.5305 10.4085 55.0526 10.3641C54.6384 10.3257 54.3003 10.4188 54.0384 10.6436C53.7852 10.8611 53.6398 11.173 53.6021 11.5793C53.5333 12.3201 53.8539 12.848 54.5638 13.1629L55.5821 13.619C56.7479 14.1289 57.2721 15.0172 57.1545 16.2837C57.0872 17.0086 56.8186 17.5662 56.3485 17.9564C55.8791 18.3386 55.2621 18.4943 54.4974 18.4233Z" fill="#121619"/>
<path d="M61.7555 19.8451C60.0129 19.2795 59.405 18.0687 59.9317 16.2127L61.0373 16.3823C60.8383 17.1251 60.8138 17.7059 60.9639 18.1247C61.124 18.5383 61.4856 18.8365 62.0487 19.0193C62.4292 19.1427 62.7692 19.1185 63.0689 18.9466C63.3787 18.7696 63.604 18.4643 63.7447 18.0305C63.883 17.6044 63.9017 17.2488 63.8008 16.9637C63.6999 16.6786 63.4725 16.4072 63.1188 16.1494L62.2295 15.5076C61.7588 15.1698 61.4431 14.7561 61.2824 14.2666C61.1241 13.7695 61.1339 13.247 61.3117 12.6991C61.529 12.0295 61.9086 11.5723 62.4506 11.3277C63.0027 11.0779 63.6326 11.0679 64.3402 11.2975C65.0936 11.542 65.6102 11.9326 65.8902 12.4692C66.1803 13.0007 66.2012 13.714 65.9528 14.609L64.8625 14.4697C65.0369 13.8029 65.0593 13.2803 64.9298 12.9019C64.8104 12.5183 64.5224 12.2524 64.0658 12.1042C63.6701 11.9758 63.3199 11.9925 63.015 12.1543C62.7203 12.311 62.5099 12.5833 62.384 12.9714C62.1543 13.6791 62.3512 14.2644 62.9747 14.7275L63.868 15.3959C64.8936 16.1493 65.21 17.1309 64.8173 18.3408C64.5926 19.0332 64.2081 19.5182 63.6639 19.7958C63.1221 20.0657 62.4859 20.0821 61.7555 19.8451Z" fill="#121619"/>
<path d="M70.327 23.6698L70.9954 21.1935L68.7017 19.8386L66.8555 21.619L65.936 21.0758L72.4185 15.0097L73.4206 15.6017L71.2465 24.213L70.327 23.6698ZM69.3478 19.2167L71.2282 20.3276L72.075 17.1483C72.1623 16.8747 72.272 16.5631 72.404 16.2138L72.3834 16.2015C72.1411 16.4858 71.9212 16.7322 71.7237 16.9408L69.3478 19.2167Z" fill="#121619"/>
<path d="M74.3531 27.1408C73.7082 26.5188 73.4824 25.7733 73.676 24.9041C73.8695 24.035 74.4716 23.0763 75.4823 22.0283C77.5481 19.886 79.3123 19.5202 80.775 20.9307C81.42 21.5526 81.7202 22.1922 81.6755 22.8493C81.6367 23.5119 81.3569 24.1535 80.8364 24.774L79.9251 24.1286C80.329 23.629 80.5668 23.1693 80.6383 22.7493C80.7155 22.3236 80.5525 21.9163 80.1494 21.5276C79.6829 21.0778 79.1375 20.9519 78.5131 21.15C77.8942 21.3423 77.1489 21.8905 76.277 22.7946C74.6222 24.5107 74.2583 25.8157 75.1855 26.7098C76.0435 27.5372 77.0528 27.3492 78.2135 26.1456L78.505 25.8433L77.1488 24.5355L77.7569 23.9049L79.8473 25.9207L76.732 29.1513L76.1619 28.6016L77.1176 27.4894C76.6473 27.7582 76.1711 27.8659 75.6892 27.8124C75.2131 27.7645 74.7677 27.5406 74.3531 27.1408Z" fill="#121619"/>
<path d="M79.9783 31.8589L81.7795 34.6669L81.0219 35.1528L78.6571 31.4661L85.8286 26.866L88.148 30.4821L87.3905 30.968L85.6347 28.2307L83.2813 29.7403L84.9269 32.3059L84.1794 32.7853L82.5338 30.2197L79.9783 31.8589Z" fill="#121619"/>
<path d="M86.9958 41.6159C86.912 41.3154 86.9345 41.0392 87.0635 40.7872C87.2024 40.5408 87.4221 40.3757 87.7226 40.2918C88.0385 40.2036 88.3197 40.2289 88.5661 40.3678C88.8146 40.5144 88.9809 40.7379 89.0647 41.0384C89.1508 41.3466 89.1244 41.6239 88.9855 41.8704C88.8488 42.1245 88.6225 42.2956 88.3066 42.3838C88.0061 42.4677 87.7315 42.4364 87.483 42.2898C87.2443 42.1488 87.0819 41.9242 86.9958 41.6159Z" fill="#121619"/>
</svg>
